# xmcd CD database file
#
# Track frame offsets:
#	150
#	13590
#	43731
#	59816
#	71327
#	89040
#	103918
#	117044
#	128426
#	136995
#	144299
#	151301
#
# Disc length: 2244 seconds
#
# Revision: 1
# Processed by: cddbd v1.4PL0 Copyright (c) Steve Scherf et al.
# Submitted via: CDex 1.40Beta9
#
DISCID=a508c20c
DTITLE=Eric Roche - The Perc U Lator
DYEAR=1999
DGENRE=Freestyle
TTITLE0=The Perc U Lator
TTITLE1=Hamam
TTITLE2=Steel Road
TTITLE3=Road to Brecon
TTITLE4=Trapeze
TTITLE5=The Third Field
TTITLE6=Roundabout
TTITLE7=The Water is Wide
TTITLE8=The Brandenbug Hornpipe
TTITLE9=Horpipe From Water Music
TTITLE10=Bouree from Music for Fireworks
TTITLE11=Dawning of the Day
EXTD=YEAR: 1999 ID3G: 119
EXTT0=
EXTT1=
EXTT2=
EXTT3=
EXTT4=
EXTT5=
EXTT6=
EXTT7=
EXTT8=
EXTT9=
EXTT10=
EXTT11=
PLAYORDER=
